<svg xmlns="http://www.w3.org/2000/svg" xmlns:xlink="http://www.w3.org/1999/xlink" width="66.953" height="66.953" viewBox="0 0 66.953 66.953"><defs><linearGradient id="a" x1="1.022" y1="-0.031" x2="-0.347" y2="1.107" gradientUnits="objectBoundingBox"><stop offset="0" stop-color="#00bfff"/><stop offset="1" stop-color="#45db33"/></linearGradient></defs><g transform="translate(-478.224 -2713.723)"><g transform="translate(478.224 2713.723)"><circle cx="31.907" cy="31.907" r="31.907" transform="translate(1.7 1.569)" fill="#005f83"/><path d="M57.149,9.805A33.477,33.477,0,0,0,9.806,57.148,33.477,33.477,0,1,0,57.149,9.805ZM33.477,62.587A29.112,29.112,0,0,1,5.752,24.6a15.57,15.57,0,0,0,1.5,1.791,37.229,37.229,0,0,0,5.313,4.623c.142.1.344.246.449.341a5.352,5.352,0,0,1,.01,1.312,7.59,7.59,0,0,0,.68,4.259,11.479,11.479,0,0,0,2,2.57,5.4,5.4,0,0,1,1.392,1.874,5.533,5.533,0,0,1,.014,1.669,9.309,9.309,0,0,0,.106,2.981,9.214,9.214,0,0,0,1.893,3.49A7.244,7.244,0,0,1,20.182,51.2a7.056,7.056,0,0,1,.265,1.513,13.17,13.17,0,0,0,.3,1.893c.513,2.006,2.178,3.93,4.424,3.93.12,0,.242-.005.364-.017,2.326-.213,3.923-2.291,4.168-5.424a6.228,6.228,0,0,1,.4-2.139c.08-.032.275-.08.42-.115a4.508,4.508,0,0,0,2.313-1.165c1.415-1.449,1.025-3.265.791-4.351a5.12,5.12,0,0,1-.145-.891c.012-.517,1.072-1.422,1.471-1.763l3.991-3.409A5.3,5.3,0,0,0,40.4,33.579,7.638,7.638,0,0,0,37.248,29.7a6.127,6.127,0,0,0-5.736-.907,7.342,7.342,0,0,0-1.43.842c-.114.081-.265.187-.388.265a1.38,1.38,0,0,1-.182-.26,8.2,8.2,0,0,1-.41-.969,11.457,11.457,0,0,0-.687-1.563c-1.617-2.914-4.259-3.237-6.188-3.473-.33-.04-.641-.078-.952-.127a10.193,10.193,0,0,1-4.544-1.945,4.37,4.37,0,0,1,1.339-.284c.221.007.481.037.755.068a7.1,7.1,0,0,0,2.824-.095,7.115,7.115,0,0,0,2.484-1.406c.18-.141.35-.274.507-.384a3.483,3.483,0,0,1,1.479-.306c1.516-.127,4.671-.39,5.117-4.776a11.764,11.764,0,0,0-1.209-5.674c-.53-1.3-1.044-2.588-1.492-3.922A29.135,29.135,0,0,1,43.748,6.239l-.287.282A30.672,30.672,0,0,0,40.8,9.351a4.142,4.142,0,0,0-.925,1.922,4.222,4.222,0,0,0,1.075,3.239,6.007,6.007,0,0,0,3.19,2.419,4.315,4.315,0,0,0,1.047.129,6.9,6.9,0,0,0,3.067-.909,4.585,4.585,0,0,1,1.231-.488,4.121,4.121,0,0,1,1.222.29,8.338,8.338,0,0,0,2.365.51,4.106,4.106,0,0,0,3.093-1.21,29.115,29.115,0,0,1,4.592,8.052c-.156,0-.314.006-.456.008-.428.005-.913.012-1.442.052a7.578,7.578,0,0,1-3.384-.708,18.31,18.31,0,0,0-2.875-.876c-2.974-.591-6.024,1.03-7.771,4.13-.509.9-2.942,5.551-.872,8.4A8.335,8.335,0,0,0,46.6,36.507,25.555,25.555,0,0,0,50.192,38.4c.279.113.556.215.823.314a4.7,4.7,0,0,1,1.913,1,2.788,2.788,0,0,1,.22,1.873,10.909,10.909,0,0,1-.706,2.474c-.8,2.169-1.885,5.14.668,8.056a7.227,7.227,0,0,0,1.532,1.324A29.032,29.032,0,0,1,33.477,62.587Z" transform="translate(-0.001)" fill="url(#a)"/></g></g></svg>