<svg xmlns="http://www.w3.org/2000/svg" xmlns:xlink="http://www.w3.org/1999/xlink" viewBox="0 0 88.39 24.6"><defs><style>.cls-1{fill:#036084;}.cls-2{fill:url(#linear-gradient);}</style><linearGradient id="linear-gradient" x1="-887.24" y1="532.4" x2="-886.24" y2="532.4" gradientTransform="matrix(27.29, 0, 0, -23.63, 24229.75, 12594.57)" gradientUnits="userSpaceOnUse"><stop offset="0" stop-color="#41bbec"/><stop offset="0.1" stop-color="#21bff0"/><stop offset="0.26" stop-color="#27c1db"/><stop offset="0.47" stop-color="#3fbeaf"/><stop offset="0.71" stop-color="#51bb79"/><stop offset="0.98" stop-color="#64bc46"/><stop offset="1" stop-color="#65bc46"/></linearGradient></defs><g id="Layer_2" data-name="Layer 2"><g id="Layer_1-2" data-name="Layer 1"><g id="Group_7" data-name="Group 7"><path id="Path_8-2" data-name="Path 8-2" class="cls-1" d="M0,.48V6.22H7v17.9h6.49V6.22h7V.48Z"/><g id="Group_6" data-name="Group 6"><path id="Path_9-2" data-name="Path 9-2" class="cls-1" d="M55.46,9.4c-3.25-.74-4.05-1.22-4.05-2.3V7c0-.84.77-1.52,2.34-1.52a11.72,11.72,0,0,1,6.56,2.33l3.24-4.62A14.59,14.59,0,0,0,53.92.08c-5.62,0-9.07,3.17-9.07,7.56v.07c0,4.86,3.85,6.28,8.83,7.43,3.18.74,4,1.28,4,2.26v.07c0,1-.94,1.62-2.67,1.62a12,12,0,0,1-7.6-2.84l-3.61,4.36a16.25,16.25,0,0,0,11,3.91c5.69,0,9.47-2.87,9.47-7.7v-.06c0-4.43-3.35-6.18-8.73-7.36"/><path id="Path_10-2" data-name="Path 10-2" class="cls-1" d="M83.51,15.75c-1.41,1.72-2.85,2.87-5.29,2.87-3.28,0-5.59-2.77-5.59-6.32v-.07C72.63,8.79,74.94,6,78.22,6a6.24,6.24,0,0,1,5.12,2.77l4.88-3.82A11.42,11.42,0,0,0,78.29,0,12.09,12.09,0,0,0,65.94,11.83v.54A11.94,11.94,0,0,0,77.61,24.58H78a11.77,11.77,0,0,0,10.37-5.34Z"/></g><path id="Path_11-2" data-name="Path 11-2" class="cls-2" d="M30.56.49,16.92,24.12h7.17L30.56,12.9,37,24.12h7.17Z"/></g></g></g></svg>